<svg width="20" height="20" viewBox="0 0 20 20" fill="none" xmlns="http://www.w3.org/2000/svg">
<path d="M19.5359 10.8964L10.6458 0.650817C10.5654 0.558108 10.466 0.483756 10.3544 0.432799C10.2428 0.381841 10.1216 0.355469 9.99888 0.355469C9.87619 0.355469 9.75493 0.381841 9.64332 0.432799C9.53172 0.483756 9.43236 0.558108 9.352 0.650817L0.464503 10.8964C0.437647 10.9272 0.420233 10.9652 0.414337 11.0057C0.40844 11.0462 0.414309 11.0875 0.431245 11.1248C0.44818 11.162 0.475468 11.1936 0.509858 11.2158C0.544248 11.238 0.584292 11.2499 0.625218 11.2499H2.79486C2.91807 11.2499 3.03593 11.1964 3.11897 11.1026L8.98236 4.34457V19.4276C8.98236 19.5455 9.07879 19.6419 9.19665 19.6419H10.8038C10.9216 19.6419 11.0181 19.5455 11.0181 19.4276V4.34457L16.8815 11.1026C16.9618 11.1964 17.0797 11.2499 17.2056 11.2499H19.3752C19.5574 11.2499 19.6565 11.0356 19.5359 10.8964Z" fill="white"/>
</svg>
