<svg width="15" height="16" viewBox="0 0 15 16" fill="none" xmlns="http://www.w3.org/2000/svg">
<path d="M14.2479 9.60776H0.267745C0.179352 9.60776 0.107031 9.68008 0.107031 9.76847V10.9738C0.107031 11.0622 0.179352 11.1345 0.267745 11.1345H12.4258L9.5269 14.8109C9.44453 14.9153 9.51886 15.072 9.65346 15.072H11.1099C11.2084 15.072 11.3008 15.0278 11.3631 14.9495L14.7541 10.6484C15.0856 10.2265 14.7863 9.60776 14.2479 9.60776ZM14.732 4.86668H2.574L5.47288 1.19034C5.55525 1.08588 5.48092 0.929184 5.34632 0.929184H3.88984C3.79141 0.929184 3.699 0.973381 3.63672 1.05173L0.245647 5.35285C-0.0858262 5.77472 0.213504 6.39347 0.749888 6.39347H14.732C14.8204 6.39347 14.8927 6.32115 14.8927 6.23276V5.0274C14.8927 4.93901 14.8204 4.86668 14.732 4.86668Z" fill="black" fill-opacity="0.85"/>
</svg>
