<svg width="34" height="34" viewBox="0 0 34 34" fill="none" xmlns="http://www.w3.org/2000/svg">
<path d="M24.1022 23.1189L19.4647 18.4814C20.1844 17.5511 20.5737 16.4136 20.5737 15.2171C20.5737 13.785 20.0147 12.4421 19.004 11.4296C17.9933 10.4171 16.6469 9.85999 15.2165 9.85999C13.7862 9.85999 12.4397 10.4189 11.429 11.4296C10.4165 12.4403 9.85938 13.785 9.85938 15.2171C9.85938 16.6475 10.4183 17.9939 11.429 19.0046C12.4397 20.0171 13.7844 20.5743 15.2165 20.5743C16.4129 20.5743 17.5487 20.185 18.479 19.4671L23.1165 24.1028C23.1301 24.1164 23.1463 24.1272 23.164 24.1346C23.1818 24.142 23.2009 24.1458 23.2201 24.1458C23.2393 24.1458 23.2584 24.142 23.2761 24.1346C23.2939 24.1272 23.3101 24.1164 23.3237 24.1028L24.1022 23.3261C24.1158 23.3125 24.1266 23.2963 24.134 23.2785C24.1414 23.2608 24.1452 23.2417 24.1452 23.2225C24.1452 23.2032 24.1414 23.1842 24.134 23.1664C24.1266 23.1487 24.1158 23.1325 24.1022 23.1189ZM18.0451 18.0457C17.2879 18.8011 16.2844 19.2171 15.2165 19.2171C14.1487 19.2171 13.1451 18.8011 12.3879 18.0457C11.6326 17.2886 11.2165 16.285 11.2165 15.2171C11.2165 14.1493 11.6326 13.1439 12.3879 12.3886C13.1451 11.6332 14.1487 11.2171 15.2165 11.2171C16.2844 11.2171 17.2897 11.6314 18.0451 12.3886C18.8004 13.1457 19.2165 14.1493 19.2165 15.2171C19.2165 16.285 18.8004 17.2903 18.0451 18.0457Z" fill="#01A19A"/>
<rect x="0.5" y="0.500488" width="33" height="32.999" stroke="#01A19A"/>
</svg>
