<svg width="15" height="15" viewBox="0 0 15 15" fill="none" xmlns="http://www.w3.org/2000/svg">
<g clip-path="url(#clip0_169089_13212)">
<path fill-rule="evenodd" clip-rule="evenodd" d="M5.83049 0.200104H12.2287C13.4676 0.200104 14.4647 1.19719 14.4647 2.43608V8.8343H5.83049V0.200104ZM6.80271 7.86207H13.4925V2.43608C13.4925 1.73414 12.9306 1.17233 12.2287 1.17233H6.80271V7.86207ZM2.86409 1.17233H2.73598C2.03403 1.17233 1.47222 1.73414 1.47222 2.43608V2.56419H2.86409V1.17233ZM2.73598 0.200104C1.49709 0.200104 0.5 1.19719 0.5 2.43608V3.53641H3.83631V0.200104H2.73598ZM2.86409 6.50281H1.47222V7.89468H2.86409V6.50281ZM12.1359 13.1926H12.264C12.966 13.1926 13.5278 12.6308 13.5278 11.9288V11.836H12.1359V13.1926ZM11.1637 14.1648V10.8638H14.5V11.9288C14.5 13.1677 13.5029 14.1648 12.264 14.1648H11.1637ZM8.19457 11.836H6.80271V13.2279H8.19457V11.836ZM1.47222 11.836V11.9641C1.47222 12.6661 2.03403 13.2279 2.73598 13.2279H2.86409V11.836H1.47222ZM0.5 11.9641C0.5 13.203 1.49709 14.2001 2.73598 14.2001H3.83631V10.8638H0.5V11.9641ZM0.5 5.53059V8.8669H3.83631V5.53059H0.5ZM5.83049 10.8638V14.2001H9.1668V10.8638H5.83049Z" fill="white"/>
</g>
<defs>
<clipPath id="clip0_169089_13212">
<rect width="14" height="14" fill="white" transform="translate(0.5 0.199982)"/>
</clipPath>
</defs>
</svg>
