<svg width="34" height="34" viewBox="0 0 34 34" fill="none" xmlns="http://www.w3.org/2000/svg">
<path d="M24.0015 10.7117H10.0015C9.92293 10.7117 9.85864 10.776 9.85864 10.8545V11.9974C9.85864 12.076 9.92293 12.1402 10.0015 12.1402H24.0015C24.0801 12.1402 24.1444 12.076 24.1444 11.9974V10.8545C24.1444 10.776 24.0801 10.7117 24.0015 10.7117ZM24.0015 21.8545H10.0015C9.92293 21.8545 9.85864 21.9188 9.85864 21.9974V23.1402C9.85864 23.2188 9.92293 23.2831 10.0015 23.2831H24.0015C24.0801 23.2831 24.1444 23.2188 24.1444 23.1402V21.9974C24.1444 21.9188 24.0801 21.8545 24.0015 21.8545ZM24.0015 16.2831H10.0015C9.92293 16.2831 9.85864 16.3474 9.85864 16.426V17.5688C9.85864 17.6474 9.92293 17.7117 10.0015 17.7117H24.0015C24.0801 17.7117 24.1444 17.6474 24.1444 17.5688V16.426C24.1444 16.3474 24.0801 16.2831 24.0015 16.2831Z" fill="#01A19A"/>
<rect x="0.5" y="0.500488" width="33" height="32.999" stroke="#01A19A"/>
</svg>
