<svg width="14" height="14" viewBox="0 0 14 14" fill="none" xmlns="http://www.w3.org/2000/svg">
<g clip-path="url(#clip0_169089_27383)">
<path d="M13.5 1.49728H0.5C0.223437 1.49728 0 1.72072 0 1.99728V11.9973C0 12.2738 0.223437 12.4973 0.5 12.4973H13.5C13.7766 12.4973 14 12.2738 14 11.9973V1.99728C14 1.72072 13.7766 1.49728 13.5 1.49728ZM12.875 3.22853V11.3723H1.125V3.22853L0.69375 2.8926L1.30781 2.10353L1.97656 2.62385H12.025L12.6938 2.10353L13.3078 2.8926L12.875 3.22853ZM12.025 2.62228L7 6.52853L1.975 2.62228L1.30625 2.10197L0.692188 2.89103L1.12344 3.22697L6.46094 7.37697C6.61444 7.49622 6.80328 7.56096 6.99766 7.56096C7.19203 7.56096 7.38088 7.49622 7.53438 7.37697L12.875 3.22853L13.3062 2.8926L12.6922 2.10353L12.025 2.62228Z" fill="white"/>
</g>
<defs>
<clipPath id="clip0_169089_27383">
<rect width="14" height="14" fill="white"/>
</clipPath>
</defs>
</svg>
