<svg width="15" height="15" viewBox="0 0 15 15" fill="none" xmlns="http://www.w3.org/2000/svg">
<path d="M13.25 1.15201H1.75C1.47344 1.15201 1.25 1.37545 1.25 1.65201V13.152C1.25 13.4286 1.47344 13.652 1.75 13.652H13.25C13.5266 13.652 13.75 13.4286 13.75 13.152V1.65201C13.75 1.37545 13.5266 1.15201 13.25 1.15201ZM12.625 8.40201H7.75V6.40201H12.625V8.40201ZM12.625 12.527H2.375V2.27701H12.625V5.40201H7.25C6.97344 5.40201 6.75 5.62545 6.75 5.90201V8.90201C6.75 9.17857 6.97344 9.40201 7.25 9.40201H12.625V12.527ZM8.5625 7.40201C8.5625 7.56777 8.62835 7.72674 8.74556 7.84395C8.86277 7.96116 9.02174 8.02701 9.1875 8.02701C9.35326 8.02701 9.51223 7.96116 9.62944 7.84395C9.74665 7.72674 9.8125 7.56777 9.8125 7.40201C9.8125 7.23625 9.74665 7.07728 9.62944 6.96007C9.51223 6.84286 9.35326 6.77701 9.1875 6.77701C9.02174 6.77701 8.86277 6.84286 8.74556 6.96007C8.62835 7.07728 8.5625 7.23625 8.5625 7.40201Z" fill="white"/>
</svg>
